<?xml version="1.0" encoding="utf-8"?>
<svg class="clyde-2-VPBZ logo-1U_ovC flexChild-FMspoG" viewBox="0 0 32 32" style="flex-grow:0;flex-shrink:0" version="1.1" preserveAspectRatio="none" xmlns="http://www.w3.org/2000/svg" xmlns:bx="https://boxy-svg.com">
  <defs>
    <bx:grid x="-0.113" y="0.687" width="100" height="100"/>
  </defs>
  <g transform="matrix(0.921842, 0, 0, 0.921842, 0.231383, 1.087883)" style="">
    <rect x="3.382" y="3.633" width="25.299" height="21.694" style="fill: rgb(255, 255, 255);"/>
    <ellipse cx="19.959" cy="16.093" rx="2.46" ry="1.95" style="fill: rgb(114, 137, 218);"/>
    <ellipse cx="11.593" cy="16.093" rx="2.46" ry="1.95" style="fill: rgb(114, 137, 218);"/>
    <path d="M 24.86 -1.18 L 6.775 -1.18 C -0.238 -1.183 -0.238 -1.183 -0.251 5.759 L -0.251 23.351 C -0.238 30.417 -0.238 30.417 6.775 30.458 L 25.634 30.458 L 26.792 26.426 L 32.169 33.533 L 32.169 6.057 C 31.988 -1.183 32.113 -1.183 24.86 -1.18 Z M 18.156 6.804 C 19.787 6.804 20.338 6.756 19.39 5.807 L 17.69 4.465 C 20.016 4.549 24.258 6.466 26.09 7.902 C 28.193 11.888 31.401 24.448 21.975 24.259 C 21.975 24.259 21.234 23.155 20.619 22.293 C 22.224 21.913 22.793 20.722 21.908 21.127 C 20.838 21.568 20.092 21.713 18.954 21.927 C 16.998 22.236 15.005 22.236 13.049 21.927 C 11.909 21.725 10.794 21.394 9.728 20.943 C 9.236 20.697 9.397 21.894 10.958 22.296 C 10.22 23.157 9.482 24.141 9.482 24.141 C 0.367 24.141 3.81 11.888 5.914 7.902 C 7.746 6.466 11.717 4.549 14.043 4.465 L 12.557 5.811 C 12.109 6.259 11.573 6.772 13.47 6.772" style="fill: rgb(114, 137, 218);"/>
  </g>
</svg>