<?xml version="1.0" encoding="utf-8"?>
<svg class="type-1G6S2n logo-1U_ovC flexChild-FMspoG" viewBox="0 0 98 36" style="flex-grow:0;flex-shrink:0" version="1.1" xmlns="http://www.w3.org/2000/svg" xmlns:bx="https://boxy-svg.com">
  <defs xmlns="http://www.w3.org/1999/xhtml">
    <bx:grid x="-0.155" y="0.114" width="100" height="100"/>
  </defs>
  <path d="M 13.2 7.804 L 7.1 7.804 L 7.1 14.604 L 11.2 18.204 L 11.2 11.604 L 13.4 11.604 C 14.8 11.604 15.453 11.974 15.453 12.974 L 15.5 18.304 C 15.5 19.304 14.9 20.104 13.4 20.104 L 7.1 20.104 L 7.1 23.904 L 13.2 23.904 C 16.5 23.904 19.6 22.304 19.6 18.604 L 19.6 13.204 C 19.6 9.404 16.5 7.804 13.2 7.804 Z M 45.4 18.604 L 45.4 13.004 C 45.4 11.004 49.1 10.504 50.2 12.504 L 53.6 11.204 C 52.62 8.888 50.313 7.417 47.8 7.504 C 44.5 7.504 41.3 9.404 41.3 13.004 L 41.3 18.604 C 41.3 22.304 44.5 24.104 47.8 24.104 C 50.287 24.109 52.567 22.718 53.7 20.504 L 50 18.904 C 49.1 21.104 45.4 20.604 45.4 18.604 Z M 34.2 13.804 C 32.9 13.504 32.1 13.104 32 12.304 C 32.1 10.404 35 10.404 36.7 12.204 L 39.4 10.204 C 38.048 8.502 35.972 7.538 33.8 7.604 C 30.8 7.604 27.9 9.304 27.9 12.404 C 27.9 15.504 30.3 17.104 33 17.504 C 34.3 17.704 35.8 18.204 35.8 19.104 C 35.7 20.804 32.1 20.704 30.4 18.804 L 27.8 21.204 C 29.127 22.973 31.189 24.041 33.4 24.104 C 36.4 24.104 39.7 22.404 39.9 19.304 C 40 15.304 37.1 14.304 34.2 13.804 Z M 21.8 23.904 L 26 23.904 L 26 7.804 L 21.9 7.804 L 21.9 23.904 L 21.8 23.904 Z M 91.6 7.804 L 85.5 7.804 L 85.5 14.604 L 89.6 18.204 L 89.6 11.604 L 91.8 11.604 C 93.2 11.604 93.9 12.304 93.9 13.304 L 93.9 18.304 C 93.9 19.304 93.3 20.104 91.8 20.104 L 85.5 20.104 L 85.5 23.904 L 91.6 23.904 C 94.9 23.904 98 22.304 98 18.604 L 98 13.204 C 98 9.404 94.9 7.804 91.6 7.804 Z M 69.662 8.018 L 69.709 18.625 C 69.709 22.325 73.109 24.125 76.509 24.125 C 79.909 24.125 83.309 22.325 83.309 18.625 L 83.309 8.018 L 69.662 8.018 Z M 79.209 8.018 L 79.209 18.498 C 79.209 19.698 77.909 20.298 76.609 20.298 C 75.309 20.298 73.886 19.721 73.886 18.521 L 73.886 8.018 L 79.209 8.018 Z M 67.842 13.123 C 67.742 9.323 65.142 7.823 61.742 7.823 L 55.142 7.823 L 55.142 23.923 L 59.342 23.923 L 59.342 18.823 L 60.042 18.823 L 63.842 23.923 L 69.042 23.923 L 64.542 18.423 C 66.642 17.823 67.842 16.123 67.842 13.123 Z M 61.842 15.323 L 59.442 15.323 L 59.442 11.623 L 61.842 11.623 C 63.266 11.542 64.244 13.033 63.602 14.307 C 63.27 14.966 62.579 15.365 61.842 15.323 Z"/>
</svg>