<?xml version="1.0" encoding="utf-8"?>
<svg class="clyde-2-VPBZ logo-1U_ovC flexChild-FMspoG" viewBox="0 0 33 36" style="flex-grow:0;flex-shrink:0" version="1.1" xmlns="http://www.w3.org/2000/svg" xmlns:bx="https://boxy-svg.com">
  <defs>
    <bx:grid x="1.126" y="7.606" width="100" height="100"/>
  </defs>
  <ellipse cx="19.6" cy="17.1" rx="2" ry="1.585"/>
  <ellipse cx="12.8" cy="17.1" rx="2" ry="1.585"/>
  <path d="M 28.5 0 L 3.8 0 C 1.735 -0.012 0.043 1.635 0 3.7 L 0 28 C 0.007 30.08 1.721 31.748 3.8 31.7 L 24.8 31.7 L 23.8 28.4 L 26.2 30.5 L 28.4 32.5 L 32.4 35.9 L 32.4 3.7 C 32.275 1.633 30.571 0.016 28.5 0 Z M 18.051 9.507 C 19.377 9.507 19.825 9.468 19.054 8.697 L 17.672 7.606 C 19.563 7.674 23.011 9.233 24.5 10.4 C 26.21 13.64 28.817 23.849 21.155 23.696 C 21.155 23.696 20.553 22.798 20.053 22.098 C 21.358 21.789 21.82 20.821 21.101 21.15 C 20.231 21.508 19.625 21.626 18.7 21.8 C 17.11 22.051 15.49 22.051 13.9 21.8 C 12.973 21.636 12.067 21.367 11.2 21 C 10.8 20.8 10.931 21.773 12.2 22.1 C 11.6 22.8 11 23.6 11 23.6 C 3.591 23.6 6.39 13.64 8.1 10.4 C 9.589 9.233 12.817 7.674 14.708 7.606 L 13.5 8.7 C 13.136 9.064 12.7 9.481 14.242 9.481"/>
</svg>